{"title":"Chennai Express 2013 1CD CAM@Anirban","uid":8796075,"size":419426205,"categoryP":"video","categoryS":"movies","magnet":"?xt=urn:btih:15314e4628958aa201d6f14829afad95b58c09b3&amp;dn=Chennai+Express+2013+1CD+CAM%40Anirban&amp;tr=udp%3A%2F%2Ftracker.openbittorrent.com%3A80&amp;tr=udp%3A%2F%2Fopen.demonii.com%3A1337&amp;tr=udp%3A%2F%2Ftracker.coppersurfer.tk%3A6969&amp;tr=udp%3A%2F%2Fexodus.desync.com%3A6969","seeders":0,"leechers":0,"uploader":"NokiaAnir","files":9,"time":1376081684,"description":"General\nFormat                           : MPEG-4\nFormat profile                   : Base Media / Version 2\nCodec ID                         : mp42\nFile size                        : 399 MiB\nDuration                         : 2h 9mn\nOverall bit rate                 : 431 Kbps\nEncoded date                     : UTC 2013-08-08 05:19:49\nTagged date                      : UTC 2013-08-08 05:19:49\n\nVideo\nID                               : 201\nFormat                           : AVC\nFormat/Info                      : Advanced Video Codec\nFormat profile                   : &lt;a class=&quot;__cf_email__&quot; href=&quot;/cdn-cgi/l/email-protection&quot; data-cfemail=&quot;d69ebfb1be969ae7f8e5&quot;&gt;[email&amp;#160;protected]&lt;/a&gt;&lt;script cf-hash='f9e31' type=&quot;text/javascript&quot;&gt;\n/* &lt;![CDATA[ */!function(){try{var t=&quot;currentScript&quot;in document?document.currentScript:function(){for(var t=document.getElementsByTagName(&quot;script&quot;),e=t.length;e--;)if(t[e].getAttribute(&quot;cf-hash&quot;))return t[e]}();if(t&amp;&amp;t.previousSibling){var e,r,n,i,c=t.previousSibling,a=c.getAttribute(&quot;data-cfemail&quot;);if(a){for(e=&quot;&quot;,r=parseInt(a.substr(0,2),16),n=2;a.length-n;n+=2)i=parseInt(a.substr(n,2),16)^r,e+=String.fromCharCode(i);e=document.createTextNode(e),c.parentNode.replaceChild(e,c)}}}catch(u){}}();/* ]]&gt; */&lt;/script&gt;\nFormat settings, CABAC           : Yes\nFormat settings, ReFrames        : 4 frames\nCodec ID                         : avc1\nCodec ID/Info                    : Advanced Video Coding\nDuration                         : 2h 9mn\nBit rate mode                    : Variable\nBit rate                         : 347 Kbps\nMaximum bit rate                 : 1 275 Kbps\nWidth                            : 416 pixels\nHeight                           : 196 pixels\nDisplay aspect ratio             : 2.2:1\nOriginal display aspect ratio    : 2.2:1\nFrame rate mode                  : Constant\nFrame rate                       : 25.000 fps\nColor space                      : YUV\nChroma subsampling               : 4:2:0\nBit depth                        : 8 bits\nScan type                        : Progressive\nBits/(Pixel*Frame)               : 0.170\nStream size                      : 322 MiB (81%)\nWriting library                  : x264 core 124 r2197 69a0443\nTagged date                      : UTC 2013-08-08 05:20:04\n\nAudio\nID                               : 101\nFormat                           : AAC\nFormat/Info                      : Advanced Audio Codec\nFormat profile                   : LC\nCodec ID                         : 40\nDuration                         : 2h 9mn\nBit rate mode                    : Variable\nBit rate                         : 80.0 Kbps\nMaximum bit rate                 : 114 Kbps\nChannel(s)                       : 2 channels\nChannel positions                : Front: L R\nSampling rate                    : 32.0 KHz\nCompression mode                 : Lossy\nStream size                      : 74.1 MiB (19%)\nEncoded date                     : UTC 2013-08-08 05:20:03\nTagged date                      : UTC 2013-08-08 05:20:04\n","torrent":{"xt":"urn:btih:15314e4628958aa201d6f14829afad95b58c09b3","amp;dn":"Chennai+Express+2013+1CD+CAM%40Anirban","amp;tr":["udp%3A%2F%2Ftracker.openbittorrent.com%3A80","udp%3A%2F%2Fopen.demonii.com%3A1337","udp%3A%2F%2Ftracker.coppersurfer.tk%3A6969","udp%3A%2F%2Fexodus.desync.com%3A6969"],"infoHash":"15314e4628958aa201d6f14829afad95b58c09b3","infoHashBuffer":{"type":"Buffer","data":[21,49,78,70,40,149,138,162,1,214,241,72,41,175,173,149,181,140,9,179]},"announce":[],"urlList":[]}}